<svg width="12" height="13" viewBox="0 0 12 13" fill="none" xmlns="http://www.w3.org/2000/svg">
<g clip-path="url(#clip0_106_116)">
<path d="M1.50854 7.24986H7.22754L5.88304 8.59436L6.94354 9.65536L9.03804 7.56036C9.31925 7.27906 9.47722 6.8976 9.47722 6.49986C9.47722 6.10211 9.31925 5.72065 9.03804 5.43936L6.93805 3.33936L5.87654 4.39986L7.22654 5.74986H1.50854V7.24986Z" fill="white"/>
<path d="M10.2499 0.5H1.74992C1.28242 0.503699 0.835513 0.69283 0.507378 1.02584C0.179244 1.35885 -0.00327581 1.8085 -8.08203e-05 2.276V4.45H1.49992V2.276C1.49817 2.24145 1.50325 2.2069 1.51488 2.17432C1.5265 2.14174 1.54444 2.11177 1.56766 2.08613C1.59088 2.0605 1.61893 2.03969 1.65021 2.02491C1.68148 2.01013 1.71537 2.00167 1.74992 2H10.2499C10.3193 2.00337 10.3846 2.03408 10.4314 2.08542C10.4783 2.13677 10.5029 2.20456 10.4999 2.274V10.724C10.5029 10.7934 10.4783 10.8612 10.4314 10.9126C10.3846 10.9639 10.3193 10.9946 10.2499 10.998H1.74992C1.6805 10.9946 1.61524 10.9639 1.56839 10.9126C1.52155 10.8612 1.49693 10.7934 1.49992 10.724V8.55H-8.08203e-05V10.726C-0.00274379 11.1932 0.180011 11.6423 0.508088 11.9749C0.836165 12.3074 1.28277 12.4963 1.74992 12.5H10.2499C10.7174 12.4963 11.1643 12.3072 11.4925 11.9742C11.8206 11.6412 12.0031 11.1915 11.9999 10.724V2.276C12.0031 1.8085 11.8206 1.35885 11.4925 1.02584C11.1643 0.69283 10.7174 0.503699 10.2499 0.5V0.5Z" fill="white"/>
</g>
<defs>
<clipPath id="clip0_106_116">
<rect width="12" height="12" fill="white" transform="translate(0 0.5)"/>
</clipPath>
</defs>
</svg>
