<svg width="25" height="18" viewBox="0 0 25 18" fill="none" xmlns="http://www.w3.org/2000/svg">
<g clip-path="url(#clip0_106_328)">
<path fill-rule="evenodd" clip-rule="evenodd" d="M24.5 1.48389H0.5V17.4839H24.5V1.48389ZM16.3 14.4839C16.9543 14.4839 17.5351 14.1698 17.9 13.6841C18.2649 14.1698 18.8458 14.4839 19.5 14.4839C20.6046 14.4839 21.5 13.5885 21.5 12.4839C21.5 11.3793 20.6046 10.4839 19.5 10.4839C18.8458 10.4839 18.2649 10.798 17.9 11.2837C17.5351 10.798 16.9543 10.4839 16.3 10.4839C15.1955 10.4839 14.3 11.3793 14.3 12.4839C14.3 13.5885 15.1955 14.4839 16.3 14.4839Z" fill="black"/>
</g>
<defs>
<clipPath id="clip0_106_328">
<rect width="24" height="17" fill="white" transform="translate(0.5 0.983887)"/>
</clipPath>
</defs>
</svg>
