<svg width="60" height="60" viewBox="0 0 60 60" fill="none" xmlns="http://www.w3.org/2000/svg">
<path d="M39.4347 22H20.5653C20.2513 22 20 22.2513 20 22.5653C20 22.8794 20.2513 23.1307 20.5653 23.1307H39.4347C39.7487 23.1307 40 22.8794 40 22.5653C40 22.2513 39.7446 22 39.4347 22Z" fill="black"/>
<path d="M39.4347 29.1309H20.5653C20.2513 29.1309 20 29.3821 20 29.6962C20 30.0103 20.2513 30.2615 20.5653 30.2615H39.4347C39.7487 30.2615 40 30.0103 40 29.6962C40 29.3821 39.7446 29.1309 39.4347 29.1309Z" fill="black"/>
<path d="M39.4347 36.2612H20.5653C20.2513 36.2612 20 36.5124 20 36.8265C20 37.1405 20.2513 37.3918 20.5653 37.3918H39.4347C39.7487 37.3918 40 37.1405 40 36.8265C40 36.5124 39.7446 36.2612 39.4347 36.2612Z" fill="black"/>
</svg>
