<svg width="60" height="60" viewBox="0 0 60 60" fill="none" xmlns="http://www.w3.org/2000/svg">
<path d="M36.2717 22.6253L22.929 35.9679C22.707 36.19 22.7069 36.5453 22.929 36.7674C23.1511 36.9895 23.5064 36.9894 23.7285 36.7674L37.0712 23.4247C37.2932 23.2027 37.2933 22.8474 37.0712 22.6253C36.8491 22.4032 36.4908 22.4061 36.2717 22.6253Z" fill="black"/>
<path d="M23.7285 22.6253L37.0712 35.9679C37.2933 36.19 37.2933 36.5453 37.0712 36.7674C36.8491 36.9895 36.4938 36.9894 36.2718 36.7674L22.9291 23.4247C22.7071 23.2027 22.707 22.8474 22.9291 22.6253C23.1512 22.4032 23.5094 22.4061 23.7285 22.6253Z" fill="black"/>
</svg>
