<svg width="60" height="60" viewBox="0 0 60 60" fill="none" xmlns="http://www.w3.org/2000/svg">
<path d="M36.7424 23.3997L23.3997 36.7424C23.1777 36.9644 23.1777 37.3198 23.3997 37.5418C23.6218 37.7639 23.9772 37.7639 24.1993 37.5419L37.5419 24.1992C37.764 23.9772 37.764 23.6218 37.5419 23.3997C37.3198 23.1777 36.9615 23.1805 36.7424 23.3997Z" fill="black"/>
<path d="M37.542 36.7424L24.1993 23.3997C23.9773 23.1777 23.6219 23.1777 23.3998 23.3997C23.1777 23.6218 23.1777 23.9772 23.3998 24.1993L36.7424 37.5419C36.9645 37.764 37.3199 37.764 37.542 37.5419C37.764 37.3198 37.7611 36.9615 37.542 36.7424Z" fill="black"/>
</svg>
