<svg width="11" height="11" viewBox="0 0 11 11" fill="none" xmlns="http://www.w3.org/2000/svg">
<path d="M7.33181 9.24968C8.43314 9.24968 9.35714 8.85768 10.1038 8.07368L10.9998 8.95568C10.5611 9.45968 10.0198 9.84235 9.37581 10.1037C8.73181 10.365 8.02714 10.4957 7.26181 10.4957C6.44981 10.4957 5.69848 10.3463 5.00781 10.0477C4.31714 9.73968 3.73381 9.31035 3.25781 8.75968C2.78181 8.20901 2.44581 7.56968 2.24981 6.84168H0.653809V6.05768H2.10981C2.09114 5.81501 2.08181 5.62368 2.08181 5.48368C2.08181 5.34368 2.09114 5.15235 2.10981 4.90968H0.653809V4.12568H2.24981C2.44581 3.39768 2.78181 2.75835 3.25781 2.20768C3.73381 1.65701 4.31714 1.23235 5.00781 0.93368C5.69848 0.62568 6.44981 0.47168 7.26181 0.47168C8.03648 0.47168 8.74114 0.602346 9.37581 0.86368C10.0198 1.12501 10.5611 1.50301 10.9998 1.99768L10.1038 2.87968C9.36648 2.10501 8.44248 1.71768 7.33181 1.71768C6.48248 1.71768 5.73581 1.93701 5.09181 2.37568C4.44781 2.81435 3.99514 3.39768 3.73381 4.12568H8.17181V4.90968H3.53781C3.50981 5.08701 3.49581 5.27835 3.49581 5.48368C3.49581 5.67968 3.50981 5.87101 3.53781 6.05768H8.17181V6.84168H3.73381C3.99514 7.56968 4.44781 8.15301 5.09181 8.59168C5.73581 9.03035 6.48248 9.24968 7.33181 9.24968Z" fill="black"/>
</svg>
