<svg width="24" height="24" viewBox="0 0 24 24" fill="none" xmlns="http://www.w3.org/2000/svg">
<path d="M12 7.95703C9.75 7.95703 7.95703 9.78516 7.95703 12C7.95703 14.25 9.75 16.043 12 16.043C14.2148 16.043 16.043 14.25 16.043 12C16.043 9.78516 14.2148 7.95703 12 7.95703ZM12 14.6367C10.5586 14.6367 9.36328 13.4766 9.36328 12C9.36328 10.5586 10.5234 9.39844 12 9.39844C13.4414 9.39844 14.6016 10.5586 14.6016 12C14.6016 13.4766 13.4414 14.6367 12 14.6367ZM17.1328 7.81641C17.1328 7.28906 16.7109 6.86719 16.1836 6.86719C15.6562 6.86719 15.2344 7.28906 15.2344 7.81641C15.2344 8.34375 15.6562 8.76562 16.1836 8.76562C16.7109 8.76562 17.1328 8.34375 17.1328 7.81641ZM19.8047 8.76562C19.7344 7.5 19.4531 6.375 18.5391 5.46094C17.625 4.54688 16.5 4.26562 15.2344 4.19531C13.9336 4.125 10.0312 4.125 8.73047 4.19531C7.46484 4.26562 6.375 4.54688 5.42578 5.46094C4.51172 6.375 4.23047 7.5 4.16016 8.76562C4.08984 10.0664 4.08984 13.9688 4.16016 15.2695C4.23047 16.5352 4.51172 17.625 5.42578 18.5742C6.375 19.4883 7.46484 19.7695 8.73047 19.8398C10.0312 19.9102 13.9336 19.9102 15.2344 19.8398C16.5 19.7695 17.625 19.4883 18.5391 18.5742C19.4531 17.625 19.7344 16.5352 19.8047 15.2695C19.875 13.9688 19.875 10.0664 19.8047 8.76562ZM18.1172 16.6406C17.8711 17.3438 17.3086 17.8711 16.6406 18.1523C15.5859 18.5742 13.125 18.4688 12 18.4688C10.8398 18.4688 8.37891 18.5742 7.35938 18.1523C6.65625 17.8711 6.12891 17.3438 5.84766 16.6406C5.42578 15.6211 5.53125 13.1602 5.53125 12C5.53125 10.875 5.42578 8.41406 5.84766 7.35938C6.12891 6.69141 6.65625 6.16406 7.35938 5.88281C8.37891 5.46094 10.8398 5.56641 12 5.56641C13.125 5.56641 15.5859 5.46094 16.6406 5.88281C17.3086 6.12891 17.8359 6.69141 18.1172 7.35938C18.5391 8.41406 18.4336 10.875 18.4336 12C18.4336 13.1602 18.5391 15.6211 18.1172 16.6406Z" fill="black"/>
</svg>
