<svg width="60" height="60" viewBox="0 0 60 60" fill="none" xmlns="http://www.w3.org/2000/svg">
<path d="M39.8226 38.98L34.9623 34.1197C36.2661 32.6208 37.0554 30.6652 37.0554 28.5277C37.0554 23.8226 33.2284 20 28.5277 20C23.8226 20 20 23.8271 20 28.5277C20 33.2284 23.8271 37.0554 28.5277 37.0554C30.6652 37.0554 32.6208 36.2661 34.1197 34.9623L38.98 39.8226C39.0953 39.9379 39.2506 40 39.4013 40C39.5521 40 39.7073 39.9423 39.8226 39.8226C40.0532 39.592 40.0532 39.2106 39.8226 38.98ZM21.1929 28.5277C21.1929 24.4834 24.4834 21.1973 28.5233 21.1973C32.5676 21.1973 35.8537 24.4878 35.8537 28.5277C35.8537 32.5676 32.5676 35.8625 28.5233 35.8625C24.4834 35.8625 21.1929 32.5721 21.1929 28.5277Z" fill="black"/>
</svg>
