<svg width="24" height="24" viewBox="0 0 24 24" fill="none" xmlns="http://www.w3.org/2000/svg">
<path d="M19.1367 8.34375C19.8398 7.81641 20.4727 7.18359 20.9648 6.44531C20.332 6.72656 19.5938 6.9375 18.8555 7.00781C19.6289 6.55078 20.1914 5.84766 20.4727 4.96875C19.7695 5.39062 18.9609 5.70703 18.1523 5.88281C17.4492 5.14453 16.5 4.72266 15.4453 4.72266C13.4062 4.72266 11.7539 6.375 11.7539 8.41406C11.7539 8.69531 11.7891 8.97656 11.8594 9.25781C8.80078 9.08203 6.05859 7.60547 4.23047 5.39062C3.91406 5.91797 3.73828 6.55078 3.73828 7.25391C3.73828 8.51953 4.37109 9.64453 5.39062 10.3125C4.79297 10.2773 4.19531 10.1367 3.70312 9.85547V9.89062C3.70312 11.6836 4.96875 13.1602 6.65625 13.5117C6.375 13.582 6.02344 13.6523 5.70703 13.6523C5.46094 13.6523 5.25 13.6172 5.00391 13.582C5.46094 15.0586 6.83203 16.1133 8.44922 16.1484C7.18359 17.1328 5.60156 17.7305 3.87891 17.7305C3.5625 17.7305 3.28125 17.6953 3 17.6602C4.61719 18.7148 6.55078 19.3125 8.66016 19.3125C15.4453 19.3125 19.1367 13.7227 19.1367 8.83594C19.1367 8.66016 19.1367 8.51953 19.1367 8.34375Z" fill="black"/>
</svg>
